<svg xmlns="http://www.w3.org/2000/svg" viewBox="0 0 245 61"><path fill="#fff" d="M.85.464h44.96v37.531L23.383 60.43.85 37.995z"/><path fill="#f8b916" d="M45.916 37.995L23.383 60.643l-.106-.319V15.136L45.81 37.783z"/><path fill="#009c8a" d="M.744.357h45.172v37.638L23.383 15.454v45.189L.744 37.995z"/><path d="M74.508 20.665h-5.206l2.55-11.269 2.656 11.269zm-7.76 9.782l1.492-5.742h7.437l1.487 5.742h5.741L75.783 4.293h-7.225L61.33 30.447h5.418zM97.257 30.447h1.062l1.169-.106 1.381-.319.638-.213.637-.319.637-.319.637-.532.531-.532.425-.638.425-.744.319-.957.106-1.063.106-1.17V22.26l-.212-1.17-.319-1.063-.425-.957-.637-.744-.425-.32-.425-.318-1.062-.425-1.381-.318v-.106l1.062-.212.85-.535.85-.531.637-.637.425-.849.319-.853.213-1.061.106-1.066v-.955l-.106-.955-.213-.747-.319-.743-.319-.637-.319-.535-.425-.531-.531-.318-.531-.425-.637-.212-1.275-.425L98.85 4.4l-1.594-.106h-9.672v26.154h9.673zM93.11 8.33h3.294l.637.106.642.212.531.212.531.429.319.531.319.531.106.637.106.747-.106.849-.213.743-.319.535-.319.425-.531.318-.425.212-.531.212H93.11V8.33zm0 10.74H97.151l.85.213.637.319.425.425.425.532.212.638.106.744.106.85-.106.638v.532l-.213.532-.106.425-.531.638-.531.425-.636.319-.637.106-1.067.107H93.11V19.07zM116.815 30.447V11.306h.106l7.118 19.141h7.229V4.293h-5.104v18.179h-.106l-6.906-18.179h-7.441v26.154zM136.373 15.461l3.506-3.508 3.509 3.506-3.506 3.508zM158.267 20.665h-5.21l2.554-11.269h.106l2.55 11.269zm-7.76 9.782l1.487-5.742h7.441l1.487 5.742h5.741L159.54 4.293h-7.123l-7.335 26.154h5.425zM176.549 30.447V10.351l4.781 20.096h5.21l5.1-20.096h.106v20.096h5.317V4.293h-8.504l-4.36 17.861h-.106l-4.144-17.861h-8.716v26.154zM209.71 19.708h2.125l.637.106.531.106.425.213.425.213.323.319.212.319.212.425.319.85.106.957v4.785l.212 1.276.106.638.213.532h5.418l-.213-.532-.106-.851-.213-2.233-.106-2.233V21.94l-.213-.744-.106-.638-.213-.532-.319-.425-.319-.425-.744-.638-.85-.427-.744-.212-1.275-.212v-.106l1.275-.318.956-.425.85-.637.744-.747.425-.955.425-.959.106-1.167.106-1.172-.106-1.592-.319-1.384-.213-.637-.319-.531-.319-.535-.425-.425-.425-.424-.425-.318-.531-.318-.531-.318-1.169-.318-1.381-.106h-10.102v26.154h5.529V19.708zm0-11.378h2.444l.531.106.637.106.425.212.429.429.319.425.213.637.106.637.106.959v.637l-.106.637-.213.637-.319.641-.319.425-.535.425-.531.318-.744.106h-2.444V8.33zM235.221 30.978l1.594-.106 1.381-.213 1.275-.425.956-.425.956-.638.744-.744.531-.744.535-.957.319-.957.319-1.063.213-1.17.106-1.169.106-2.446v-5.104l-.106-2.445-.106-1.172-.213-1.061-.319-1.061-.319-1.066-.535-.849-.531-.853-.744-.637-.956-.637-.956-.531-1.275-.318-1.381-.217-1.594-.106-1.594.106-1.385.217-1.169.318-1.062.531-.85.637-.744.637-.531.853-.531.849-.319 1.066-.319 1.061-.212 1.061-.106 1.172-.106 2.445-.106 2.552.106 2.552.106 2.446.106 1.169.212 1.17.319 1.063.319.957.531.957.531.744.744.744.85.638 1.062.425 1.169.425 1.385.213 1.594.106zm0-3.934l-.531-.106-.425-.107-.425-.106-.429-.213-.319-.319-.319-.425-.213-.532-.213-.532-.319-1.276-.106-1.701-.106-2.02V15.03l.106-1.915.106-1.698.319-1.278.213-.637.213-.425.319-.429.319-.318.429-.212.425-.212.425-.106h1.062l.531.106.425.212.425.212.319.318.213.429.319.425.213.637.212 1.278.213 1.698.106 1.915v4.678l-.106 2.02-.213 1.701-.212 1.276-.213.532-.319.532-.213.425-.319.319-.425.213-.425.106-.531.107-.531.105z" fill="#fff"/></svg>