<svg xmlns="http://www.w3.org/2000/svg" width="595.279" height="841.891" viewBox="0 0 595.279 841.891"><path fill="#FFF" d="M375.32 420.945l203.882-203.882c21.447-21.447 21.447-56.226 0-77.673-21.446-21.447-56.212-21.447-77.658 0L297.647 343.272 93.765 139.39c-21.447-21.447-56.226-21.447-77.673 0s-21.447 56.226 0 77.673l203.882 203.882L16.092 624.841c-21.447 21.447-21.447 56.227 0 77.659 10.724 10.71 24.783 16.078 38.829 16.078 14.047 0 28.106-5.368 38.844-16.092l203.868-203.882L501.53 702.486c10.723 10.724 24.783 16.092 38.829 16.092s28.106-5.368 38.829-16.092c21.447-21.447 21.447-56.226 0-77.659L375.32 420.945z"/></svg>