<svg xmlns="http://www.w3.org/2000/svg" width="595.279" height="841.891" viewBox="0 0 595.279 841.891"><path fill="#FFF" d="M454.159 424.445c.391 1.44.351 1.53-1.13 1.53-5.5.02-11 .01-16.5.01h-6.68c-2.38-.01-2.39-.01-3.03-2.2-1.55-5.35-3.1-10.7-4.649-16.04-.61-2.12-.62-2.13-2.86-2.13h-29.87c-2 0-2.01.01-2.56 1.9-1.66 5.63-3.33 11.25-4.95 16.88-.29 1.04-.67 1.62-1.93 1.609-8.17-.06-16.351-.029-24.521-.029-.28 0-.56-.09-.82-.13-.279-.94.2-1.681.41-2.42 10.04-33.331 20.09-66.65 30.15-99.971.13-.43.31-.84.38-1.28.15-.84.69-1.06 1.44-1.02.3.02.6 0 .899 0 10.99 0 21.99 0 32.99.01 2.22.01 2.02-.27 2.71 2.02 10.09 33.46 20.18 66.94 30.27 100.399.082.292.182.572.251.862zm-40.549-44.91c.271-.88-.16-1.56-.359-2.25-2.431-8.41-4.891-16.81-7.37-25.21-.25-.83-.061-2.16-1.46-2.11-1.271.03-1.061 1.29-1.29 2.04-2.55 8.53-5.05 17.08-7.53 25.64-.16.58-.65 1.19-.2 1.89h18.209zM341.81 402.035v21.62c0 .38-.02.74-.01 1.12.03.84-.37 1.22-1.22 1.17-.521-.03-1.03 0-1.551 0-19.699 0-39.39 0-59.08-.01-2.9 0-2.67.34-2.67-2.58v-49.94-49.71c0-2.78-.3-2.5 2.49-2.5 19.17-.02 38.34-.01 57.521-.01 2.699 0 2.43-.13 2.43 2.37v21.18c-.01 2.7.28 2.45-2.57 2.45-10.479.01-20.95.01-31.43.01-2.64 0-2.43-.2-2.43 2.38-.011 2.6-.021 5.19 0 7.8.01 1.93.029 1.96 1.96 1.96 9.14.02 18.279.01 27.42.01 1.189 0 2.38.05 3.569-.01 1.03-.06 1.511.3 1.46 1.39-.06 1.18-.01 2.37-.01 3.56v18.72c0 2.71.101 2.44-2.37 2.44H306.33c-.44 0-.891-.01-1.33 0-1.67.04-1.7.05-1.7 1.76-.021 3.56-.021 7.14 0 10.7 0 1.84.02 1.87 1.8 1.88 3.5.02 6.99 0 10.48 0h23.409c.521 0 1.04.03 1.561 0 .82-.04 1.28.25 1.25 1.12-.01.38.01.751.01 1.12z"/><path fill="#FFF" d="M470.699 425.945c-.52 0-1.04-.04-1.56.01-1.05.101-1.46-.33-1.42-1.399.06-1.641.01-3.28.01-4.91 0-32.03-.01-64.06 0-96.09 0-2.52-.28-2.4 2.41-2.4 6.91 0 13.82-.01 20.73.01 3.3.01 2.949-.44 2.949 2.98.011 24.45.011 48.9.011 73.35 0 2.53-.08 2.31 2.279 2.31h23.41c3.86-.01 7.73-.02 11.59.01.931 0 1.431-.24 1.28-1.26-.08-.51-.06-1.04-.11-1.56-.67-6.65-1.409-13.28-2.489-19.89-2.591-15.74-6.73-31.03-13-45.72-10.051-23.54-24.841-43.52-44.83-59.59-15.62-12.54-33.09-21.74-51.86-28.57-18.22-6.62-37.02-10.81-56.2-13.44-15.77-2.16-31.62-3.43-47.529-3.48-38.49-.14-76.99-.09-115.48-.1-2.31 0-2.18-.13-2.18 2.18V318.456c0 .45.02.9-.01 1.34-.08 1.03.31 1.48 1.4 1.44 2.23-.07 4.46-.05 6.69-.01 5.12.08 10.25-.26 15.36.43 17.81 2.37 30.23 11.74 36.44 28.67 4.98 13.59 4.88 27.53 1.53 41.48-1.84 7.7-5.3 14.65-10.75 20.49-7.85 8.42-17.79 12.35-29.06 13.34-6.23.55-12.48.22-18.72.31-3.26.04-2.88-.4-2.88 2.81-.01 30.7 0 61.391 0 92.091 0 28.6 0 57.22-.01 85.83 0 2.52-.02 5.05.01 7.579.01 1.721.04 1.721 1.71 1.761.29.01.59 0 .89 0 35.22 0 70.45.01 105.67 0 17.93-.011 35.8-.87 53.601-3.03 14.47-1.75 28.77-4.34 42.85-8.15 19.68-5.33 38.42-12.859 55.68-23.859 20.49-13.07 36.95-30 49.09-51.09 10.44-18.16 16.851-37.761 20.66-58.271 1.59-8.55 2.71-17.16 3.4-25.83.46-5.92.67-11.859.939-17.8.101-2.01.03-2.01-2.079-2.04h-1.11c-19.771-.002-39.541-.002-59.312-.002zM198.63 349.916v23.6c0 7.42 0 14.85-.01 22.26 0 .89.03 1.79 0 2.67-.04.89.21 1.37 1.23 1.36 6.24-.07 12.48-.06 18.71-.15 1.17-.02 2.36-.29 3.51-.54 6.64-1.43 10.55-5.73 12.44-12.02 1.82-6.05 2.07-12.26 1.61-18.52-.24-3.41-.82-6.77-2.08-9.98-2.57-6.58-7.44-10.19-14.38-11.02-6.58-.77-13.2-.21-19.8-.37-.82-.02-1.26.28-1.22 1.15.02.519-.01 1.04-.01 1.56zm368.62 18.739c3.569 21.49 4.56 43.12 3.819 64.85-.77 22.41-3.67 44.53-9.64 66.19-5.51 19.94-13.45 38.82-24.6 56.29-13.65 21.42-31.11 39.13-52.11 53.37-20.71 14.04-43.37 23.83-67.35 30.729-14.79 4.261-29.82 7.33-45.061 9.49-12.21 1.73-24.47 2.89-36.79 3.57-9.87.55-19.75.79-29.64.79-92.89 0-185.79 0-278.68-.01-3.11 0-2.68.449-2.68-2.711-.01-76.77-.01-153.529-.01-230.299v-229.86c0-2.93 0-2.93 2.96-2.93 92.29 0 184.59-.01 276.9 0 10.55 0 21.1.18 31.64.81 27.57 1.63 54.78 5.52 81.36 13.25 22.579 6.56 44.01 15.68 63.789 28.51 31.811 20.63 55.23 48.36 70.311 83.13 7.632 17.592 12.632 35.941 15.782 54.831zm-403.19 4.98c.06-31.09-25.01-56.32-56.09-56.43-31.16-.12-56.47 25.05-56.53 56.21.18 32.34 26.43 56.379 56.22 56.339 31.07-.039 56.33-25.079 56.4-56.119zm-12.58 242.37c1.11.141 1.71-.22 1.54-1.439-.05-.29-.01-.59-.01-.89 0-52.23.01-104.461 0-156.681 0-2.729.24-2.31-2.42-2.31-28.46-.021-56.91-.021-85.37 0-3.21 0-2.76-.471-2.76 2.87-.01 25.92 0 51.85 0 77.779 0 25.851 0 51.71-.01 77.57 0 .521.04 1.05-.01 1.56-.11 1.101.22 1.711 1.46 1.54.43-.05.89 0 1.33 0h84.92c.44.001.9-.049 1.33.001z"/><path fill="#010101" d="M595.28 407.345v26.31c-.569.46-.31 1.1-.33 1.66-.09 5.95-.38 11.87-.909 17.8-.83 9.24-2.011 18.44-3.62 27.58-3.221 18.4-8.17 36.3-15.25 53.6-9.67 23.591-22.9 44.931-40.221 63.67-17.689 19.141-38.409 34.24-61.579 46.051-17.921 9.12-36.7 15.979-56.12 21.109-13.141 3.46-26.44 6.13-39.88 8.11a446.896 446.896 0 0 1-30.75 3.43c-6.44.5-12.881.9-19.341 1.05h-.01c0-.01-.01-.01-.01-.01-.76-.08-1.521-.24-2.2.3h.021c-.011 0-.011 0-.021.011H0v-514.13h321.49c.24.38.631.32.99.33 12.18.25 24.33 1.05 36.45 2.26 9.89.99 19.729 2.33 29.53 4.02 19.26 3.33 38.13 8.12 56.489 14.85 28.15 10.33 53.86 24.79 76.221 44.94 15.17 13.68 27.979 29.3 38.5 46.79 9.689 16.09 17.16 33.18 22.66 51.12 7.689 25.12 11.939 50.8 12.619 77.06.021.699-.329 1.489.331 2.089zm-24.21 26.16c.74-21.729-.25-43.359-3.819-64.85-3.15-18.89-8.15-37.24-15.78-54.83-15.08-34.77-38.5-62.5-70.311-83.13-19.779-12.83-41.21-21.95-63.789-28.51-26.58-7.73-53.79-11.62-81.36-13.25-10.54-.63-21.09-.81-31.64-.81-92.311-.01-184.61 0-276.9 0-2.96 0-2.96 0-2.96 2.93v229.86c0 76.77 0 153.53.01 230.299 0 3.16-.43 2.711 2.68 2.711 92.89.01 185.79.01 278.68.01 9.89 0 19.77-.24 29.64-.79 12.32-.681 24.58-1.84 36.79-3.57 15.24-2.16 30.271-5.229 45.061-9.49 23.979-6.899 46.64-16.689 67.35-30.729 21-14.24 38.46-31.95 52.11-53.37 11.149-17.47 19.09-36.35 24.6-56.29 5.968-21.661 8.868-43.781 9.638-66.191z"/><path fill="#D50272" d="M469.14 425.955c.52-.05 1.04-.01 1.56-.01h60.421c2.109.03 2.18.03 2.079 2.04-.27 5.94-.479 11.88-.939 17.8-.69 8.67-1.811 17.28-3.4 25.83-3.81 20.51-10.22 40.11-20.66 58.271-12.14 21.09-28.6 38.02-49.09 51.09-17.26 11-36 18.529-55.68 23.859-14.08 3.811-28.38 6.4-42.85 8.15-17.801 2.16-35.671 3.02-53.601 3.03-35.22.01-70.45 0-105.67 0-.3 0-.6.01-.89 0-1.67-.04-1.7-.04-1.71-1.761-.03-2.529-.01-5.06-.01-7.579.01-28.61.01-57.23.01-85.83 0-30.7-.01-61.391 0-92.091 0-3.21-.38-2.77 2.88-2.81 6.24-.09 12.49.24 18.72-.31 11.27-.99 21.21-4.92 29.06-13.34 5.45-5.84 8.91-12.79 10.75-20.49 3.35-13.95 3.45-27.89-1.53-41.48-6.21-16.93-18.63-26.3-36.44-28.67-5.11-.69-10.24-.35-15.36-.43-2.23-.04-4.46-.06-6.69.01-1.09.04-1.48-.41-1.4-1.44.03-.44.01-.89.01-1.34v-89.4-.67c0-2.31-.13-2.18 2.18-2.18 38.49.01 76.99-.04 115.48.1 15.909.05 31.76 1.32 47.529 3.48 19.181 2.63 37.98 6.82 56.2 13.44 18.771 6.83 36.24 16.03 51.86 28.57 19.989 16.07 34.779 36.05 44.83 59.59 6.27 14.69 10.409 29.98 13 45.72 1.08 6.61 1.819 13.24 2.489 19.89.051.52.03 1.05.11 1.56.15 1.02-.35 1.26-1.28 1.26-3.859-.03-7.729-.02-11.59-.01h-23.41c-2.359 0-2.279.22-2.279-2.31 0-24.45 0-48.9-.011-73.35 0-3.42.351-2.97-2.949-2.98-6.91-.02-13.82-.01-20.73-.01-2.69 0-2.41-.12-2.41 2.4-.01 32.03 0 64.06 0 96.09 0 1.63.05 3.27-.01 4.91-.039 1.071.371 1.502 1.421 1.401zm-16.11.021c1.48 0 1.521-.09 1.13-1.53-.069-.29-.17-.57-.25-.86-10.09-33.459-20.18-66.939-30.27-100.399-.69-2.29-.49-2.01-2.71-2.02-11-.01-22-.01-32.99-.01-.3 0-.6.02-.899 0-.75-.04-1.29.18-1.44 1.02-.07.44-.25.85-.38 1.28-10.061 33.32-20.11 66.64-30.15 99.971-.21.739-.689 1.479-.41 2.42.261.04.54.13.82.13 8.17 0 16.351-.03 24.521.029 1.26.011 1.64-.569 1.93-1.609 1.62-5.63 3.29-11.25 4.95-16.88.55-1.89.56-1.9 2.56-1.9h29.87c2.24 0 2.25.01 2.86 2.13 1.55 5.34 3.1 10.69 4.649 16.04.641 2.19.65 2.19 3.03 2.2h6.68c5.499-.003 10.999.007 16.499-.012zm-111.22-2.321v-21.62c0-.37-.02-.74-.01-1.12.03-.87-.43-1.16-1.25-1.12-.521.03-1.04 0-1.561 0H315.58c-3.49 0-6.98.02-10.48 0-1.78-.01-1.8-.04-1.8-1.88-.021-3.56-.021-7.14 0-10.7 0-1.71.03-1.72 1.7-1.76.439-.01.89 0 1.33 0h28.989c2.471 0 2.37.27 2.37-2.44v-18.72c0-1.19-.05-2.38.01-3.56.051-1.09-.43-1.45-1.46-1.39-1.189.06-2.38.01-3.569.01-9.141 0-18.28.01-27.42-.01-1.931 0-1.95-.03-1.96-1.96-.021-2.61-.011-5.2 0-7.8 0-2.58-.21-2.38 2.43-2.38 10.479 0 20.95 0 31.43-.01 2.851 0 2.561.25 2.57-2.45v-21.18c0-2.5.27-2.37-2.43-2.37-19.181 0-38.351-.01-57.521.01-2.79 0-2.49-.28-2.49 2.5v99.65c0 2.92-.23 2.58 2.67 2.58 19.69.01 39.38.01 59.08.01.521 0 1.03-.03 1.551 0 .85.05 1.25-.33 1.22-1.17-.01-.379.01-.74.01-1.12z"/><path fill="#D50272" d="M413.25 377.285c.199.69.63 1.37.359 2.25h-18.21c-.45-.7.04-1.31.2-1.89 2.48-8.56 4.98-17.11 7.53-25.64.229-.75.02-2.01 1.29-2.04 1.399-.05 1.21 1.28 1.46 2.11 2.481 8.4 4.941 16.8 7.371 25.21zM327.74 678.005h-2.659c.67-.529 1.43-.38 2.189-.29h.01c.15.1.31.19.46.29z"/><path fill="#D50272" d="M327.26 677.705s.01 0 .01.01c-.76-.09-1.52-.239-2.189.29h-.021c.68-.54 1.44-.38 2.2-.3zM236.12 368.575c.46 6.26.21 12.47-1.61 18.52-1.89 6.29-5.8 10.59-12.44 12.02-1.15.25-2.34.52-3.51.54-6.23.09-12.47.08-18.71.15-1.02.01-1.27-.47-1.23-1.36.03-.88 0-1.78 0-2.67.01-7.41.01-14.84.01-22.26v-23.6c0-.52.03-1.04.01-1.56-.04-.87.4-1.17 1.22-1.15 6.6.16 13.22-.4 19.8.37 6.94.83 11.81 4.44 14.38 11.02 1.26 3.21 1.84 6.571 2.08 9.98z"/><path fill="#010101" d="M107.97 317.205c31.08.11 56.15 25.34 56.09 56.43-.07 31.04-25.33 56.08-56.4 56.12-29.79.04-56.04-24-56.22-56.339.06-31.161 25.37-56.331 56.53-56.211zM153.02 614.565c.17 1.22-.43 1.58-1.54 1.439-.43-.05-.89 0-1.33 0H65.23c-.44 0-.9-.05-1.33 0-1.24.171-1.57-.439-1.46-1.54.05-.51.01-1.039.01-1.56.01-25.86.01-51.72.01-77.57 0-25.93-.01-51.859 0-77.779 0-3.341-.45-2.87 2.76-2.87 28.46-.021 56.91-.021 85.37 0 2.66 0 2.42-.42 2.42 2.31.01 52.22 0 104.45 0 156.681 0 .3-.04.599.01.889z"/></svg>