<svg xmlns="http://www.w3.org/2000/svg" width="595.279" height="841.891" viewBox="0 0 595.279 841.891"><path fill="#FFF" d="M530.633 440.035V244.253c0-128.473-104.521-232.993-232.993-232.993S64.647 115.802 64.647 244.253v195.782H5.252v390.573h584.776V440.035h-59.395zM344.028 717.501h-92.271l14.271-77.139c-14.418-10.019-23.889-26.688-23.889-45.567 0-30.645 24.835-55.48 55.48-55.48 30.645 0 55.48 24.836 55.48 55.48 0 18.69-9.282 35.191-23.447 45.252l14.376 77.454zm67.078-277.466H184.174V244.253c0-62.574 50.893-113.466 113.466-113.466s113.466 50.892 113.466 113.466v195.782z"/></svg>