<svg xmlns="http://www.w3.org/2000/svg" width="750" height="750" viewBox="0 0 750 750"><path fill="#FFF" d="M427.406 72.06c88.99 0 163.15 24.102 214.443 69.709 57.969 51.541 87.387 129.655 87.387 232.119 0 203.073-98.758 301.829-301.83 301.829H23.237V71.936c40.664.124 388.349.124 404.169.124z"/><path d="M84.543 415.911h119.769v198.748H84.543zM213.21 316.537c0 37.451-30.282 67.731-67.731 67.731-37.451 0-67.732-30.404-67.732-67.731 0-37.45 30.281-67.731 67.732-67.731 37.448 0 67.731 30.281 67.731 67.731z"/><path d="M430.99 49.316H1.484v651.367H430.99v-.123c93.813-1.235 168.096-24.597 220.873-69.463 64.147-54.63 96.653-140.778 96.653-256.097 0-55.125-8.527-104.564-25.461-146.959-16.191-40.541-40.047-75.025-70.945-102.464-54.385-48.327-130.77-74.53-221.242-76.013.122-.125.122-.248.122-.248zm-8.156 43.26c83.182 0 152.645 22.494 200.602 65.26 54.26 48.204 81.822 121.251 81.822 217.164 0 189.972-92.328 282.424-282.424 282.424H44.744V92.576h378.09z"/><path fill="#CD0067" d="M410.967 614.906H259.188V145.229h151.779-6.18c126.688 0 261.412 49.935 261.412 235.456 0 196.152-134.848 234.222-261.412 234.222h6.18z"/><g fill="#FFF"><path d="M232.985 266.479h41.652c9.395 0 16.563.742 21.507 2.103 6.674 1.978 12.358 5.438 17.057 10.383 4.695 4.943 8.28 11.123 10.753 18.292 2.472 7.169 3.708 16.068 3.708 26.697 0 9.271-1.112 17.305-3.461 24.103-2.844 8.281-6.798 14.832-12.112 20.022-3.955 3.832-9.271 6.922-16.066 9.022-5.068 1.606-11.742 2.349-20.147 2.349h-42.889l-.002-112.971zm22.866 19.159v74.654h17.057c6.427 0 11-.371 13.843-1.112 3.708-.864 6.798-2.473 9.271-4.696 2.472-2.226 4.448-5.81 5.932-10.878 1.482-5.066 2.349-11.987 2.349-20.641 0-8.775-.741-15.45-2.349-20.022-1.482-4.696-3.707-8.281-6.427-10.878-2.719-2.595-6.305-4.324-10.629-5.313-3.214-.741-9.395-1.112-18.787-1.112l-10.26-.002z"/><path d="M229.895 263.39v119.15h45.979c8.652 0 15.821-.865 21.136-2.596 7.169-2.35 12.979-5.563 17.304-9.766 5.563-5.438 9.889-12.482 12.854-21.136 2.472-7.045 3.584-15.449 3.584-25.091 0-10.876-1.359-20.146-3.831-27.687-2.596-7.662-6.428-14.091-11.495-19.404-5.066-5.314-11.247-9.146-18.416-11.248-5.313-1.482-12.606-2.226-22.371-2.226h-44.743v.004zm44.866 6.18c9.023 0 16.068.74 20.643 1.978 6.056 1.729 11.369 4.943 15.695 9.518 4.45 4.696 7.787 10.383 10.137 17.181 2.348 6.921 3.584 15.573 3.584 25.708 0 8.899-1.112 16.687-3.338 22.99-2.596 7.663-6.428 14.09-11.37 18.787-3.585 3.46-8.528 6.303-14.832 8.28-4.696 1.482-11.124 2.226-19.281 2.226H236.2v-106.79c5.189.122 38.561.122 38.561.122z"/><path d="M252.761 282.548v80.834h20.146c6.674 0 11.494-.371 14.585-1.112 4.202-.988 7.663-2.843 10.506-5.438 2.842-2.596 5.189-6.675 6.921-12.236 1.605-5.438 2.472-12.482 2.472-21.507 0-9.146-.864-16.067-2.472-21.012-1.73-5.19-4.202-9.271-7.292-12.236-3.214-2.966-7.292-5.067-11.989-6.056-3.461-.742-9.765-1.112-19.404-1.112h-13.473v-.125zm13.349 6.181c11.247 0 16.066.493 18.045.988 3.708.865 6.798 2.349 9.146 4.573 2.35 2.225 4.326 5.438 5.687 9.641 1.482 4.326 2.101 10.753 2.101 19.157 0 8.405-.741 14.956-2.224 19.776-1.36 4.448-3.091 7.663-5.068 9.517-2.101 1.854-4.695 3.214-7.91 3.956-2.596.617-6.922.988-13.102.988h-13.967V288.85c3.089-.121 7.292-.121 7.292-.121zM353.494 379.449v-112.97h83.676v19.158h-60.81v24.967h56.607v19.282H376.36v30.528h63.035v19.158h-85.901v-.123z"/><path d="M350.404 263.39v119.15h91.958v-25.338h-63.035v-24.351h56.607v-25.214h-56.607v-18.786h60.811v-25.339h-89.733v-.122zm83.676 6.18v12.978h-60.811v31.271h56.608v12.978h-56.608v36.709h63.036v12.979h-79.598v-106.79c5.438-.125 71.811-.125 77.373-.125z"/><g><path d="M566.949 379.449h-24.844l-9.889-25.708h-45.113l-9.393 25.708h-24.227l43.879-112.971h24.348l45.239 112.971zm-42.023-44.742l-15.572-41.9-15.326 41.9h30.898z"/><path d="M495.387 263.39l-46.35 119.15h30.898s8.156-22.248 9.395-25.709h40.91c1.236 3.337 9.889 25.709 9.889 25.709h31.518l-47.709-119.15h-28.551zm24.225 6.18c1.482 3.584 39.676 99.126 42.766 106.789h-18.17c-1.236-3.337-9.887-25.708-9.887-25.708h-49.439s-8.158 22.247-9.395 25.708h-17.553c2.969-7.663 40.047-103.205 41.529-106.789h20.149z"/><path d="M489.701 337.797h39.674l-20.021-53.89-19.653 53.89zm19.651-36.091c3.338 9.146 9.146 24.473 11.123 29.787h-22c1.978-5.191 7.539-20.641 10.877-29.787z"/></g><g><path d="M585.985 379.449V267.345h22.74v92.947h56.732v19.157h-79.472z"/><path d="M582.893 264.379v118.284h85.777v-25.338h-56.73v-92.946h-29.047zm22.867 6.18v92.946h56.732v12.979h-73.418V270.558l16.686.001z"/></g></g></svg>