<svg xmlns="http://www.w3.org/2000/svg" width="595.279" height="841.891" viewBox="0 0 595.279 841.891"><path fill="#FFF" d="M297.64 124.103C133.695 124.103.798 257 .798 420.945S133.694 717.787 297.64 717.787s296.842-132.896 296.842-296.842c0-163.945-132.897-296.842-296.842-296.842zm12.46 452.4h-52.857v-50.707H310.1v50.707zm0-104.837v16.749h-52.857v-20.619c0-62.314 70.905-72.191 70.905-116.458 0-20.199-18.048-35.663-41.683-35.663-24.487 0-45.972 18.048-45.972 18.048l-30.089-37.395s29.656-30.941 80.796-30.941c48.556 0 93.675 30.088 93.675 80.795 0 70.894-74.775 79.065-74.775 125.484z"/></svg>